<svg width="88" height="24" viewBox="0 0 88 24" fill="none" xmlns="http://www.w3.org/2000/svg">
<path d="M12.8496 19.3052L16.4602 24L14.7611 17.9469L12.8496 19.3052Z" fill="#2A54C9"/>
<path d="M14.7611 17.9469L16.4602 24V15.0796L14.7611 17.9469Z" fill="#537BEC"/>
<path d="M13.3806 15.8226L12.8496 19.327L14.7611 17.9465L13.3806 15.8226Z" fill="#2F64F9"/>
<path d="M14.1239 8.81424L14.9735 11.8939L16.4602 10.0886L14.1239 8.81424Z" fill="#FFC081"/>
<path d="M13.3806 15.8231L14.7611 17.9469L14.9735 11.8938L13.3806 15.8231Z" fill="#537BEC"/>
<path d="M14.7611 17.9469L16.4602 15.0797L14.9735 11.8938L14.7611 17.9469Z" fill="#2A54C9"/>
<path d="M18.1592 17.9469L16.4601 15.0797L17.9468 11.8938L18.1592 17.9469Z" fill="#2A54C9"/>
<path d="M14.9736 11.8938L16.4604 15.0796V10.0884L14.9736 11.8938Z" fill="#F9A24A"/>
<path d="M9.5575 17.3093L12.8495 19.327L13.3805 15.8226L9.5575 17.3093Z" fill="#537BEC"/>
<path d="M9.5575 17.3096V20.1768L12.8495 19.3273L9.5575 17.3096Z" fill="#2A54C9"/>
<path d="M5.8407 15.8226L9.55751 20.1766V17.3093L5.8407 15.8226Z" fill="#2F64F9"/>
<path d="M4.24792 18.2651L9.55766 20.1766L5.84085 15.8226L4.24792 18.2651Z" fill="#537BEC"/>
<path d="M1.27441 11.8939L4.24786 18.2656L4.14167 11.7877L1.27441 11.8939Z" fill="#537BEC"/>
<path d="M7.00893 4.77835L6.15937 7.53941L9.55759 6.37126L7.00893 4.77835Z" fill="#2F64F9"/>
<path d="M7.00875 4.77858L2.22999 2.97328L6.1592 7.53965L7.00875 4.77858Z" fill="#2A54C9"/>
<path d="M6.15927 2.22991L2.23006 2.97327L7.00882 4.77858L6.15927 2.22991Z" fill="#F9A24A"/>
<path d="M6.15936 2.22995L7.00891 4.77862L9.55759 6.37154L6.15936 2.22995Z" fill="#FF8007"/>
<path d="M6.1593 2.23015L10.5133 5.3098L8.81416 2.12396L6.1593 2.23015Z" fill="#2A54C9"/>
<path d="M8.81416 2.12378L10.5133 5.30962L13.4867 3.07953L8.81416 2.12378Z" fill="#2F64F9"/>
<path d="M4.14148 11.7877L4.24767 18.2656L5.84059 15.8231L4.14148 11.7877Z" fill="#2A54C9"/>
<path d="M6.15937 7.54004L4.14167 11.7878L1.27441 11.894L6.15937 7.54004Z" fill="#2A54C9"/>
<path d="M16.4602 7.3278V10.0889L9.55756 6.37205L6.1593 2.23046L10.5133 5.31011L16.4602 7.3278Z" fill="#FEB871"/>
<path d="M10.5132 5.30969L13.4866 3.07961L16.4601 5.41589V7.32739L10.5132 5.30969Z" fill="#2A54C9"/>
<path d="M2.2301 2.97345L0 0L6.15929 2.23009L2.2301 2.97345Z" fill="#FF8007"/>
<path d="M20.0708 19.3052L16.4602 24L18.1593 17.9469L20.0708 19.3052Z" fill="#2A54C9"/>
<path d="M19.5398 15.8226L20.0708 19.327L18.1593 17.9465L19.5398 15.8226Z" fill="#2F64F9"/>
<path d="M18.7965 8.81424L17.947 11.8939L16.4602 10.0886L18.7965 8.81424Z" fill="#FFC081"/>
<path d="M19.5398 15.8231L18.1593 17.9469L17.9469 11.8938L19.5398 15.8231Z" fill="#537BEC"/>
<path d="M17.9469 11.8938L16.4602 15.0796V10.0884L17.9469 11.8938Z" fill="#F9A24A"/>
<path d="M23.3628 17.3093L20.0708 19.327L19.5398 15.8226L23.3628 17.3093Z" fill="#537BEC"/>
<path d="M23.3628 17.3096V20.1768L20.0708 19.3273L23.3628 17.3096Z" fill="#2A54C9"/>
<path d="M27.0797 15.8226L23.3629 20.1766V17.3093L27.0797 15.8226Z" fill="#2F64F9"/>
<path d="M28.6726 18.2651L23.3629 20.1766L27.0797 15.8226L28.6726 18.2651Z" fill="#537BEC"/>
<path d="M31.646 11.8939L28.6725 18.2656L28.7787 11.7877L31.646 11.8939Z" fill="#537BEC"/>
<path d="M25.9115 4.77835L26.761 7.53941L23.3628 6.37126L25.9115 4.77835Z" fill="#2F64F9"/>
<path d="M25.9115 4.77858L30.6903 2.97328L26.7611 7.53965L25.9115 4.77858Z" fill="#2A54C9"/>
<path d="M26.7611 2.22991L30.6903 2.97327L25.9116 4.77858L26.7611 2.22991Z" fill="#FEB871"/>
<path d="M18.1592 17.9469L16.4601 24V15.0796L18.1592 17.9469Z" fill="#537BEC"/>
<path d="M26.761 2.22995L25.9115 4.77862L23.3628 6.37154L26.761 2.22995Z" fill="#FF8007"/>
<path d="M26.761 2.23015L22.407 5.3098L24.1061 2.12396L26.761 2.23015Z" fill="#2A54C9"/>
<path d="M24.1062 2.12378L22.4071 5.30962L19.4337 3.07953L24.1062 2.12378Z" fill="#2F64F9"/>
<path d="M28.7787 11.7877L28.6725 18.2656L27.0796 15.8231L28.7787 11.7877Z" fill="#2A54C9"/>
<path d="M26.761 7.54004L28.7787 11.7878L31.646 11.894L26.761 7.54004Z" fill="#2A54C9"/>
<path d="M16.4601 7.3278V10.0889L23.3627 6.37205L26.761 2.23046L22.407 5.31011L16.4601 7.3278Z" fill="#FEB871"/>
<path d="M22.4071 5.30969L19.4337 3.07961L16.4602 5.41589V7.32739L22.4071 5.30969Z" fill="#2A54C9"/>
<path d="M30.6902 2.97345L32.9203 0L26.761 2.23009L30.6902 2.97345Z" fill="#FF8007"/>
<path d="M16.4601 8.70778L9.5575 6.3715L16.4601 10.0883L23.3628 6.3715L16.4601 8.70778Z" fill="#FF8007"/>
<path d="M1.27441 11.8936L4.35406 5.41572L6.15937 7.53962L1.27441 11.8936Z" fill="#2F64F9"/>
<path d="M31.6459 11.8936L28.5663 5.41572L26.761 7.53962L31.6459 11.8936Z" fill="#2F64F9"/>
<path d="M9.87587 11.7877L6.15906 7.53996L4.14136 11.7877H9.87587Z" fill="white"/>
<path d="M9.87612 11.7873L9.55753 6.37141L6.1593 7.53955L9.87612 11.7873Z" fill="#F3F3F3"/>
<path d="M9.55739 17.3097L9.87597 11.7876L5.84058 15.823L9.55739 17.3097Z" fill="white"/>
<path d="M5.84047 15.823L9.87587 11.7876H4.14136L5.84047 15.823Z" fill="#F3F3F3"/>
<path d="M13.3804 15.823L14.9733 11.8938L9.87598 11.7876L13.3804 15.823Z" fill="white"/>
<path d="M9.5575 17.3097L13.3805 15.823L9.87608 11.7876L9.5575 17.3097Z" fill="#F3F3F3"/>
<path d="M9.87608 11.7873L14.1239 8.81389L9.5575 6.37141L9.87608 11.7873Z" fill="white"/>
<path d="M9.87598 11.7876L14.9733 11.8938L14.1238 8.81416L9.87598 11.7876Z" fill="#F3F3F3"/>
<path d="M23.0441 11.7877L26.7609 7.53996L28.7786 11.7877H23.0441Z" fill="white"/>
<path d="M23.0441 11.7873L23.3626 6.37141L26.7609 7.53955L23.0441 11.7873Z" fill="#F3F3F3"/>
<path d="M23.3628 17.3097L23.0442 11.7876L27.0796 15.823L23.3628 17.3097Z" fill="white"/>
<path d="M27.0794 15.823L23.0441 11.7876H28.7786L27.0794 15.823Z" fill="#F3F3F3"/>
<path d="M19.5396 15.823L17.9467 11.8938L23.0441 11.7876L19.5396 15.823Z" fill="white"/>
<path d="M23.3627 17.3097L19.5397 15.823L23.0441 11.7876L23.3627 17.3097Z" fill="#F3F3F3"/>
<path d="M23.0441 11.7873L18.7963 8.81389L23.3627 6.37141L23.0441 11.7873Z" fill="white"/>
<path d="M23.0441 11.7876L17.9467 11.8938L18.7963 8.81416L23.0441 11.7876Z" fill="#F3F3F3"/>
<path fill-rule="evenodd" clip-rule="evenodd" d="M20.3895 9.76979L21.4515 9.76979L23.1506 11.7344L24.5311 9.98218L25.9117 9.76979L25.9117 10.9379L24.1063 13.4866L23.1506 14.23L22.1948 13.4866L20.3895 10.9379L20.3895 9.76979Z" fill="#282828"/>
<path d="M23.1506 14.2297L22.1948 13.4864L23.1506 11.7341L24.1063 13.4864L23.1506 14.2297Z" fill="black"/>
<path d="M24.531 9.9823L25.9116 10.9381L23.1505 11.7345L24.531 9.9823Z" fill="black"/>
<path d="M21.4514 9.77002L23.1505 11.7346L20.3894 10.9382L21.4514 9.77002Z" fill="black"/>
<path fill-rule="evenodd" clip-rule="evenodd" d="M7.00879 14.018L8.07074 14.018L9.76985 12.0534L11.1504 13.8056L12.5309 14.018L12.5309 12.8499L10.7256 10.3012L9.76985 9.55783L8.8141 10.3012L7.00879 12.8499L7.00879 14.018Z" fill="#282828"/>
<path d="M9.76996 9.55808L8.81421 10.3014L9.76996 12.0537L10.7257 10.3014L9.76996 9.55808Z" fill="black"/>
<path d="M11.1504 13.8055L12.531 12.8497L9.7699 12.0533L11.1504 13.8055Z" fill="black"/>
<path d="M8.07074 14.0183L9.76985 12.0537L7.00879 12.8501L8.07074 14.0183Z" fill="black"/>
<path d="M85.6742 7.51491C84.9958 7.21138 84.2577 7.06501 83.5148 7.08671H80.3903V17.402H82.4225V14.137H83.8744C84.4581 14.1542 85.0386 14.0464 85.5772 13.8209C86.0082 13.6352 86.388 13.3483 86.6845 12.9845C86.9586 12.6422 87.1632 12.2495 87.2867 11.8287C87.4118 11.4171 87.476 10.9894 87.4773 10.5592C87.4931 9.91514 87.3329 9.27901 87.014 8.71924C86.6978 8.19288 86.2312 7.77339 85.6742 7.51491ZM85.3798 11.0827C85.3256 11.2665 85.2401 11.4397 85.1272 11.5945C85.0009 11.7667 84.8351 11.906 84.6438 12.001C84.4043 12.1187 84.1396 12.1761 83.8727 12.1683H82.4292V9.04876H83.8744C84.1681 9.03545 84.4602 9.09825 84.7225 9.23107C84.9162 9.33678 85.0784 9.49206 85.1925 9.68102C85.2895 9.84321 85.358 10.0209 85.3949 10.2062C85.4242 10.3421 85.4409 10.4804 85.4451 10.6194C85.4443 10.7761 85.4223 10.9319 85.3798 11.0827Z" fill="#282828"/>
<path d="M69.7789 7.08461H62.8273V9.04664H65.2393V17.3999H67.2699V9.04664H69.7789V7.08461Z" fill="#282828"/>
<path d="M41.0525 6.74963L36.3992 17.4714H38.4064L39.2427 15.4542H42.6616L43.4561 17.4714H45.8112L41.1579 6.74963H41.0525ZM39.9553 13.743L41.0023 11.234L41.9942 13.743H39.9553Z" fill="#282828"/>
<path d="M51.9815 7.15618L49.7719 12.9704L47.4135 7.15618H44.9747L49.6833 17.9482L54.3918 7.15618H51.9815Z" fill="#282828"/>
<path d="M58.2005 6.74963L53.5555 17.4714H55.5627L56.3991 15.4542H59.823L60.6175 17.4714H62.9726L58.3193 6.74963H58.2005ZM57.1033 13.743L58.1503 11.234L59.1422 13.743H57.1033Z" fill="#282828"/>
<path d="M74.1628 6.74963L69.5178 17.4714H71.525L72.3614 15.4542H75.7853L76.5798 17.4714H78.9349L74.2816 6.74963H74.1628ZM73.0655 13.743L74.1126 11.234L75.1045 13.743H73.0655Z" fill="#282828"/>
<path d="M83.9027 13.1892L85.7429 17.4388H87.7504L85.9102 13.1892C84.8941 13.1883 84.6462 13.1893 83.9027 13.1892Z" fill="#282828"/>
</svg>
