<svg width="20" height="28" viewBox="0 0 20 28" fill="none" xmlns="http://www.w3.org/2000/svg">
<path d="M1.99935 23.8265C4.54462 24.5187 7.22716 24.8889 10 24.8889C12.7728 24.8889 15.4554 24.5187 18.0007 23.8265C18.8412 23.598 19.7107 24.084 19.9427 24.9122C20.1747 25.7403 19.6813 26.597 18.8408 26.8255C16.0244 27.5914 13.0594 28 10 28C6.94061 28 3.97557 27.5914 1.15922 26.8255C0.318652 26.597 -0.174692 25.7403 0.0573039 24.9122C0.2893 24.084 1.15878 23.598 1.99935 23.8265Z" fill="white"/>
<path d="M11.1164 20.2851C10.8203 20.5769 10.4187 20.7407 9.99993 20.7407C9.58118 20.7407 9.17959 20.5768 8.88349 20.2851L0.462839 11.9888C-0.153751 11.3813 -0.153747 10.3964 0.462848 9.78894C1.07944 9.18146 2.07914 9.18146 2.69573 9.78895L8.42105 15.4297V1.55556C8.42105 0.696447 9.12794 0 9.99994 0C10.8719 0 11.5788 0.696447 11.5788 1.55556V15.4298L17.3043 9.78894C17.9209 9.18146 18.9206 9.18146 19.5372 9.78895C20.1538 10.3964 20.1537 11.3814 19.5372 11.9888L11.1164 20.2851Z" fill="white"/>
</svg>
