<svg width="48" height="48" viewBox="0 0 48 48" fill="none" xmlns="http://www.w3.org/2000/svg">
<rect width="48" height="48" rx="12" fill="url(#paint0_linear_286_2063)"/>
<path d="M15.9993 33.8265C18.5446 34.5187 21.2272 34.8889 24 34.8889C26.7728 34.8889 29.4554 34.5187 32.0007 33.8265C32.8412 33.598 33.7107 34.084 33.9427 34.9122C34.1747 35.7403 33.6813 36.597 32.8408 36.8255C30.0244 37.5914 27.0594 38 24 38C20.9406 38 17.9756 37.5914 15.1592 36.8255C14.3187 36.597 13.8253 35.7403 14.0573 34.9122C14.2893 34.084 15.1588 33.598 15.9993 33.8265Z" fill="white"/>
<path d="M25.1164 30.2851C24.8203 30.5769 24.4187 30.7407 23.9999 30.7407C23.5812 30.7407 23.1796 30.5768 22.8835 30.2851L14.4628 21.9888C13.8462 21.3813 13.8463 20.3964 14.4628 19.7889C15.0794 19.1815 16.0791 19.1815 16.6957 19.7889L22.4211 25.4297V11.5556C22.4211 10.6964 23.1279 10 23.9999 10C24.8719 10 25.5788 10.6964 25.5788 11.5556V25.4298L31.3043 19.7889C31.9209 19.1815 32.9206 19.1815 33.5372 19.7889C34.1538 20.3964 34.1537 21.3814 33.5372 21.9888L25.1164 30.2851Z" fill="white"/>
<defs>
<linearGradient id="paint0_linear_286_2063" x1="0" y1="24" x2="48" y2="24" gradientUnits="userSpaceOnUse">
<stop stop-color="#2F64F9"/>
<stop offset="0.481771" stop-color="#3976FB"/>
<stop offset="1" stop-color="#438AFD"/>
</linearGradient>
</defs>
</svg>
