<svg width="48" height="48" viewBox="0 0 48 48" fill="none" xmlns="http://www.w3.org/2000/svg">
<rect width="48" height="48" rx="12" fill="url(#paint0_linear_286_2068)"/>
<path d="M25.1164 10.4556C24.8203 10.1639 24.4187 10 23.9999 10C23.5812 10 23.1796 10.1639 22.8835 10.4556L14.4628 18.7519C13.8462 19.3594 13.8462 20.3444 14.4628 20.9518C15.0794 21.5593 16.0791 21.5593 16.6957 20.9518L22.421 15.311V29.1852C22.421 30.0444 23.1279 30.7408 23.9999 30.7408C24.8719 30.7408 25.5788 30.0444 25.5788 29.1852V15.311L31.3043 20.9518C31.9209 21.5593 32.9206 21.5593 33.5371 20.9518C34.1537 20.3443 34.1537 19.3594 33.5371 18.7519L25.1164 10.4556Z" fill="white"/>
<path d="M32.0007 33.8265C29.4554 34.5186 26.7728 34.8889 24 34.8889C21.2272 34.8889 18.5446 34.5186 15.9993 33.8265C15.1588 33.598 14.2893 34.084 14.0573 34.9122C13.8253 35.7403 14.3187 36.597 15.1592 36.8255C17.9756 37.5913 20.9406 38 24 38C27.0594 38 30.0244 37.5913 32.8408 36.8255C33.6813 36.597 34.1747 35.7403 33.9427 34.9122C33.7107 34.084 32.8412 33.598 32.0007 33.8265Z" fill="white"/>
<defs>
<linearGradient id="paint0_linear_286_2068" x1="0" y1="24" x2="48" y2="24" gradientUnits="userSpaceOnUse">
<stop stop-color="#2F64F9"/>
<stop offset="1" stop-color="#438AFD"/>
</linearGradient>
</defs>
</svg>
