<svg width="20" height="28" viewBox="0 0 20 28" fill="none" xmlns="http://www.w3.org/2000/svg">
<path d="M11.1164 0.455609C10.8203 0.163886 10.4187 -1.60711e-06 9.99992 0C9.58117 1.60713e-06 9.17958 0.163892 8.88348 0.455617L0.462826 8.75194C-0.153765 9.35943 -0.153761 10.3444 0.462834 10.9518C1.07943 11.5593 2.07912 11.5593 2.69571 10.9518L8.42104 5.31104V19.1852C8.42104 20.0444 9.12793 20.7408 9.99992 20.7408C10.8719 20.7408 11.5788 20.0444 11.5788 19.1852V5.311L17.3043 10.9518C17.9209 11.5593 18.9206 11.5593 19.5371 10.9518C20.1537 10.3443 20.1537 9.35941 19.5371 8.75193L11.1164 0.455609Z" fill="white"/>
<path d="M18.0007 23.8265C15.4554 24.5186 12.7728 24.8889 10 24.8889C7.22716 24.8889 4.54462 24.5186 1.99935 23.8265C1.15878 23.598 0.289298 24.084 0.0573037 24.9122C-0.174691 25.7403 0.318652 26.597 1.15922 26.8255C3.97557 27.5913 6.94061 28 10 28C13.0594 28 16.0244 27.5913 18.8408 26.8255C19.6813 26.597 20.1747 25.7403 19.9427 24.9122C19.7107 24.084 18.8412 23.598 18.0007 23.8265Z" fill="white"/>
</svg>
